<svg width="27" height="27" viewBox="0 0 27 27" fill="none" xmlns="http://www.w3.org/2000/svg">
<path d="M26.9995 14.4463C26.8803 14.9209 26.8133 15.4166 26.6335 15.8669C25.7423 18.0986 24.0786 19.3415 21.6871 19.5361C20.7379 19.6136 19.7729 19.5488 18.7942 19.5488V17.4521H19.0663C19.8393 17.4521 20.6124 17.4616 21.3865 17.4495C23.4189 17.4173 24.9771 15.752 24.8849 13.7217C24.8047 11.9552 23.3139 10.4628 21.5453 10.3948C21.0026 10.3742 20.459 10.3916 19.8815 10.3916C19.8815 10.2672 19.8847 10.1649 19.8815 10.0631C19.8504 9.20408 19.8863 8.33556 19.7708 7.48813C19.5483 5.86078 18.7372 4.52663 17.4505 3.51942C15.2774 1.82246 12.5521 1.62102 10.1733 3.0116C8.36878 4.06469 7.35366 5.68044 7.06627 7.74916C7.02144 8.07084 6.99139 8.39409 6.95184 8.73844C6.58692 8.77588 6.22201 8.80858 5.85815 8.85129C3.55423 9.12023 1.82985 11.3567 2.14994 13.6595C2.4231 15.6249 3.79258 17.0613 5.74213 17.4215C5.86301 17.4422 5.98548 17.452 6.1081 17.451C6.80155 17.451 7.49499 17.451 8.2264 17.451V19.5604H7.16277C6.38179 19.5604 5.6045 19.5746 4.83407 19.3795C2.33187 18.7441 0.404465 16.5715 0.0564247 13.9606C0.0453507 13.8763 0.018984 13.7924 0 13.708V12.5479C0.018984 12.4635 0.0453507 12.3797 0.0564247 12.2943C0.380207 9.75989 2.24749 7.59096 4.69327 6.94604C4.99332 6.86694 5.09615 6.72508 5.17631 6.44085C6.08806 3.21779 8.16101 1.14853 11.3946 0.263667C11.8734 0.132361 12.3755 0.083846 12.8669 0H13.9743C14.0415 0.0174592 14.1096 0.0308427 14.1784 0.0400773C15.0646 0.100162 15.9334 0.314303 16.746 0.672877C19.533 1.92793 21.2579 4.04781 21.8443 7.05994C21.9239 7.4702 21.9545 7.88996 22.0088 8.31657C22.0652 8.32554 22.1143 8.33239 22.167 8.34083C24.5732 8.75004 26.3066 10.3679 26.8661 12.7293C26.9188 12.9497 26.9557 13.1738 27 13.3964L26.9995 14.4463Z" fill="white"/>
<path d="M12.9197 26.9966C12.1313 26.1598 11.3471 25.3181 10.5498 24.4892C10.4762 24.4171 10.4186 24.3303 10.381 24.2344C10.3434 24.1385 10.3265 24.0357 10.3315 23.9328C10.3389 21.8066 10.3315 19.6799 10.3405 17.5521C10.3465 17.4541 10.3288 17.3561 10.2888 17.2665C10.2487 17.1769 10.1876 17.0983 10.1105 17.0374C8.6087 15.7138 7.99594 14.0554 8.32289 12.0773C8.7843 9.27929 11.5623 7.33132 14.3593 7.8228C17.1737 8.31691 19.0605 10.8286 18.723 13.6641C18.5648 14.9982 17.9636 16.1193 16.9379 16.9947C16.7397 17.1645 16.6563 17.329 16.6574 17.5922C16.6685 19.7274 16.6611 21.8636 16.6685 23.9982C16.6718 24.0841 16.6564 24.1697 16.6235 24.2491C16.5905 24.3285 16.5408 24.3998 16.4776 24.4581C15.7114 25.2322 14.9531 26.0153 14.1937 26.7963C14.1336 26.858 14.0824 26.9286 14.0271 26.9951L12.9197 26.9966ZM13.447 24.4654C13.7692 24.1606 14.0703 23.8674 14.3819 23.5853C14.5175 23.4625 14.5586 23.3269 14.5581 23.1466C14.5523 20.9676 14.5644 18.7887 14.5454 16.6076C14.5417 16.2143 14.6398 15.9938 15.0021 15.7903C16.2371 15.0974 16.8367 13.8671 16.611 12.5208C16.3937 11.2225 15.6207 10.3524 14.3651 9.98961C13.0715 9.61732 11.932 9.97907 11.0724 11.0116C10.2408 12.0098 10.1158 13.1483 10.6368 14.3438C10.9611 15.0873 11.5428 15.583 12.2462 15.9469C12.4013 16.0271 12.4519 16.1236 12.4493 16.296C12.4387 16.99 12.4746 17.686 12.4345 18.3774C12.4087 18.8288 12.5373 19.1557 12.8722 19.4558C13.2345 19.7806 13.5498 20.1587 13.8625 20.4893C13.6853 20.6808 13.5356 20.8532 13.3742 21.014C13.0705 21.3178 12.6407 21.5641 12.4857 21.9284C12.3306 22.2928 12.4477 22.7753 12.4451 23.2056C12.4405 23.2407 12.4405 23.2761 12.4451 23.3111C12.4537 23.3699 12.4755 23.426 12.5089 23.4751C12.8263 23.8158 13.1475 24.149 13.447 24.4654Z" fill="white"/>
<path d="M13.4916 10.9131C13.7 10.9116 13.9041 10.9718 14.0782 11.0861C14.2524 11.2004 14.3888 11.3637 14.4702 11.5555C14.5516 11.7472 14.5745 11.9588 14.5358 12.1635C14.4972 12.3682 14.3987 12.5568 14.253 12.7057C14.1072 12.8545 13.9207 12.9568 13.7168 12.9998C13.513 13.0427 13.301 13.0243 13.1076 12.9469C12.9142 12.8695 12.748 12.7366 12.6301 12.5648C12.5121 12.3931 12.4477 12.1903 12.4449 11.982C12.4434 11.8431 12.4692 11.7052 12.521 11.5763C12.5728 11.4473 12.6495 11.3299 12.7467 11.2306C12.8439 11.1313 12.9598 11.0522 13.0876 10.9977C13.2154 10.9432 13.3527 10.9145 13.4916 10.9131Z" fill="white"/>
</svg>
