<svg width="21" height="21" viewBox="0 0 21 21" fill="none" xmlns="http://www.w3.org/2000/svg">
<g clip-path="url(#clip0_144_458)">
<path d="M21 3.06664C20.9132 3.30763 20.8541 3.56404 20.7339 3.78603C20.0744 5.01002 18.4647 5.25615 17.4523 4.29988C17.4179 4.26699 17.382 4.23667 17.3373 4.19711C17.2957 4.21817 17.253 4.23565 17.2145 4.2598C16.6064 4.64005 16.0003 5.02338 15.3896 5.39849C15.2776 5.46734 15.2493 5.52644 15.2904 5.65901C15.3926 5.97565 15.4179 6.31211 15.3641 6.64047C15.3103 6.96883 15.1791 7.27963 14.9812 7.54709C14.7834 7.81456 14.5246 8.03097 14.2265 8.17839C13.9283 8.32581 13.5993 8.39997 13.2667 8.39474C11.8285 8.39063 10.8136 6.8758 11.3529 5.53774C11.3786 5.47454 11.4002 5.41082 11.4274 5.33785C11.3791 5.29777 11.3344 5.25718 11.2861 5.22121C10.6184 4.72072 9.95067 4.2228 9.28808 3.71768C9.18227 3.6365 9.11601 3.6365 9.00918 3.71768C8.32656 4.24798 7.58538 4.32814 6.80054 3.97461C6.69782 3.92836 6.63002 3.90267 6.5391 4.01161C5.61148 5.12461 4.68026 6.23469 3.74544 7.34187C3.73671 7.35214 3.73311 7.36602 3.75057 7.33005C3.89439 7.68974 4.06389 8.00319 4.14761 8.33925C4.42446 9.45019 3.58262 10.6608 2.44645 10.815C1.12333 10.9964 0.0349332 10.0668 0.00771049 8.73543C-0.0133486 7.72314 0.829528 6.78023 1.83625 6.67181C2.24716 6.62761 2.63958 6.67746 3.00837 6.8645C3.12548 6.92411 3.19225 6.91588 3.28008 6.809C4.18169 5.72958 5.08757 4.65203 5.99773 3.57638C6.0794 3.48029 6.08248 3.4176 6.0116 3.3138C5.4466 2.48342 5.47228 1.55849 6.07991 0.767162C6.93101 -0.340698 8.76109 -0.228679 9.47402 0.972701C9.83921 1.58932 9.90239 2.22855 9.63119 2.89604C9.59832 2.97774 9.55209 3.04454 9.65841 3.12316C10.3878 3.66373 11.112 4.21149 11.8532 4.76748C12.2929 4.37798 12.7998 4.17141 13.3874 4.19608C13.975 4.22074 14.4532 4.45917 14.8585 4.88721C14.9098 4.861 14.9612 4.84147 15.0033 4.81373C15.6058 4.4381 16.2062 4.05785 16.8118 3.68685C16.9258 3.61697 16.9479 3.55685 16.9063 3.42633C16.8201 3.15283 16.7909 2.86451 16.8207 2.57927C16.8504 2.29403 16.9385 2.01795 17.0793 1.76815C17.2201 1.51835 17.4107 1.30016 17.6393 1.12712C17.868 0.954074 18.1297 0.829869 18.4082 0.762206C18.6868 0.694544 18.9763 0.684866 19.2588 0.733774C19.5413 0.782683 19.8107 0.889133 20.0503 1.04652C20.29 1.20391 20.4947 1.40888 20.6519 1.64872C20.8091 1.88856 20.9153 2.15815 20.9641 2.44077C20.9729 2.47229 20.9855 2.50264 21.0015 2.53121L21 3.06664ZM17.5073 2.80303C17.5077 2.98607 17.5442 3.16722 17.6147 3.3361C17.6853 3.50499 17.7885 3.65827 17.9184 3.78717C18.0483 3.91607 18.2023 4.01804 18.3717 4.08724C18.5411 4.15645 18.7224 4.19151 18.9054 4.19043C19.2744 4.18747 19.6274 4.03956 19.8884 3.77858C20.1494 3.5176 20.2973 3.16446 20.3004 2.79533C20.303 2.03945 19.6661 1.39971 18.9054 1.39406C18.5331 1.39542 18.1766 1.5446 17.9143 1.8088C17.6519 2.07301 17.5052 2.43062 17.5063 2.80303H17.5073ZM7.70454 3.48748C8.07335 3.48548 8.42659 3.33851 8.68805 3.07829C8.94952 2.81806 9.09824 2.46544 9.10215 2.09649C9.10831 1.34165 8.47294 0.700361 7.71071 0.691626C7.52497 0.687677 7.34032 0.720812 7.16753 0.789094C6.99475 0.857376 6.83731 0.959435 6.70441 1.0893C6.57152 1.21917 6.46584 1.37424 6.39355 1.54545C6.32126 1.71665 6.28382 1.90056 6.28341 2.08641C6.283 2.27226 6.31963 2.45633 6.39117 2.62786C6.4627 2.79938 6.56769 2.95491 6.70001 3.08537C6.83233 3.21582 6.98932 3.31857 7.1618 3.38762C7.33428 3.45666 7.51879 3.49061 7.70454 3.48748ZM14.6951 6.30286C14.6972 6.12002 14.663 5.93858 14.5947 5.76897C14.5264 5.59937 14.4253 5.44494 14.2971 5.31458C14.169 5.18421 14.0163 5.08047 13.8479 5.00934C13.6796 4.9382 13.4988 4.90106 13.316 4.90005C13.0392 4.89649 12.7675 4.9753 12.5355 5.12646C12.3035 5.27763 12.1217 5.49435 12.013 5.7491C11.9044 6.00386 11.8738 6.28517 11.9253 6.55732C11.9767 6.82947 12.1078 7.08019 12.302 7.27766C12.4961 7.47514 12.7445 7.61045 13.0157 7.66643C13.2868 7.72241 13.5685 7.69654 13.8249 7.59209C14.0813 7.48764 14.3009 7.30933 14.4559 7.07979C14.6108 6.85025 14.6941 6.57983 14.6951 6.30286ZM3.49787 8.75444C3.49968 8.38525 3.35599 8.03021 3.09793 7.76628C2.83988 7.50235 2.48826 7.35078 2.11927 7.34443C1.36422 7.32594 0.704201 7.97904 0.704714 8.7457C0.703556 9.11625 0.849585 9.47208 1.11067 9.73492C1.37176 9.99776 1.72653 10.1461 2.09692 10.1472C2.46732 10.1484 2.823 10.0023 3.08573 9.7411C3.34846 9.4799 3.49671 9.12499 3.49787 8.75444Z" fill="white"/>
<path d="M17.0628 21C16.8599 20.9116 16.7988 20.7497 16.7993 20.5375C16.8017 17.2215 16.8027 13.9054 16.8024 10.5894C16.8024 9.91315 17.1779 9.48152 17.8338 9.4548C18.5431 9.42551 19.2545 9.43373 19.9649 9.4548C20.4682 9.46816 20.8041 9.73999 20.9593 10.2256C20.9702 10.2491 20.9838 10.2714 20.9998 10.2919V21H17.0628ZM20.2941 20.2919C20.2967 20.2277 20.3003 20.1891 20.3003 20.1465C20.3003 16.9685 20.3003 13.7901 20.3003 10.6115C20.3003 10.2677 20.1785 10.149 19.8267 10.149C19.2185 10.147 18.6106 10.147 18.0028 10.149C17.6057 10.149 17.504 10.2518 17.504 10.6449C17.504 13.7889 17.504 16.9332 17.504 20.0776C17.504 20.1495 17.5107 20.221 17.5143 20.2945L20.2941 20.2919Z" fill="white"/>
<path d="M5.86704 21C5.66158 20.9121 5.60303 20.7502 5.60303 20.5375C5.60611 17.4544 5.60731 14.3713 5.60662 11.2882C5.60662 10.575 6.02678 10.1577 6.74073 10.148C7.38312 10.1408 8.0255 10.1408 8.66789 10.148C9.37722 10.1562 9.80149 10.5868 9.802 11.2923C9.802 14.3692 9.8032 17.446 9.8056 20.5226C9.8056 20.7343 9.74139 20.8936 9.55802 21.0005L5.86704 21ZM9.09678 20.2908C9.09986 20.2318 9.10346 20.1978 9.10346 20.1639C9.10346 17.2093 9.10346 14.2547 9.10346 11.3C9.10346 10.9768 8.97967 10.8509 8.65813 10.8494C8.04177 10.8458 7.42798 10.8494 6.81264 10.8494C6.40173 10.8494 6.30619 10.945 6.30619 11.3576C6.30619 14.2639 6.30619 17.1706 6.30619 20.0776C6.30619 20.149 6.31339 20.2205 6.31698 20.2919L9.09678 20.2908Z" fill="white"/>
<path d="M11.4448 21C11.2538 20.888 11.1973 20.72 11.1973 20.5026C11.2024 18.143 11.2036 15.7837 11.2009 13.4248C11.2009 12.6756 11.6205 12.2533 12.3658 12.2507C12.9945 12.2486 13.6232 12.2486 14.2519 12.2507C14.9751 12.2543 15.3962 12.6726 15.3973 13.3991C15.4 15.7721 15.401 18.1451 15.4003 20.518C15.4003 20.7343 15.3521 20.9096 15.1363 21.0005L11.4448 21ZM14.6843 20.2914C14.6895 20.2375 14.6962 20.1979 14.6962 20.1583C14.6962 17.8974 14.6962 15.6352 14.6962 13.3719C14.6962 13.0713 14.5724 12.9521 14.2698 12.9511C13.6483 12.948 13.0268 12.9511 12.4053 12.9511C12.0037 12.9511 11.8994 13.0569 11.8994 13.4649V20.294L14.6843 20.2914Z" fill="white"/>
<path d="M0.2486 21C0.0564999 20.8885 0 20.721 0 20.5026C0.00616363 19.0736 0.00256818 17.6446 0.00359545 16.2155C0.00359545 15.4735 0.431968 15.0496 1.17777 15.0486C1.79927 15.0486 2.42111 15.0486 3.04329 15.0486C3.76598 15.0486 4.1964 15.4694 4.19846 16.1883C4.20257 17.6379 4.19846 19.0874 4.20205 20.537C4.20205 20.7492 4.14247 20.9111 3.93959 20.9995L0.2486 21ZM0.70214 20.2888H3.48707C3.4917 20.2446 3.49837 20.2117 3.49837 20.1789C3.49837 18.8398 3.49837 17.5007 3.49837 16.1616C3.49837 15.8759 3.36894 15.7505 3.08233 15.7505C2.44747 15.7474 1.81211 15.7505 1.17725 15.7505C0.820276 15.7505 0.703167 15.8702 0.702654 16.2345C0.702654 16.7998 0.702654 17.3686 0.702654 17.9359L0.70214 20.2888Z" fill="white"/>
<path d="M20.2944 20.2919H17.5152C17.5116 20.2184 17.5049 20.147 17.5049 20.0751C17.5049 16.9307 17.5049 13.7864 17.5049 10.6423C17.5049 10.2482 17.6076 10.147 18.0036 10.1465C18.6118 10.1465 19.2197 10.1465 19.8275 10.1465C20.1794 10.1465 20.3011 10.2678 20.3011 10.6089C20.3011 13.7873 20.3011 16.9656 20.3011 20.1439C20.3006 20.1871 20.297 20.2277 20.2944 20.2919Z" fill="white"/>
<path d="M9.0972 20.2909H6.31792C6.31432 20.2195 6.30764 20.1481 6.30713 20.0767C6.30713 17.17 6.30713 14.2633 6.30713 11.3566C6.30713 10.9455 6.40215 10.8489 6.81357 10.8484C7.42994 10.8484 8.0463 10.8459 8.65907 10.8484C8.9806 10.8484 9.10388 10.9759 9.10439 11.2991C9.10439 14.2537 9.10439 17.2083 9.10439 20.163C9.10388 20.1979 9.10028 20.2318 9.0972 20.2909Z" fill="white"/>
<path d="M14.6844 20.2914H11.8989V13.4628C11.8989 13.0564 12.0017 12.949 12.4049 12.949C13.0264 12.949 13.6479 12.949 14.2694 12.949C14.5719 12.949 14.6952 13.0692 14.6957 13.3698C14.6957 15.6308 14.6957 17.8929 14.6957 20.1562C14.6962 20.1978 14.69 20.2374 14.6844 20.2914Z" fill="white"/>
<path d="M0.702148 20.2889V17.9334C0.702148 17.3681 0.702148 16.7993 0.702148 16.232C0.702148 15.8677 0.819771 15.7485 1.17675 15.748C1.8116 15.748 2.44697 15.7454 3.08182 15.748C3.36843 15.748 3.49735 15.8749 3.49787 16.159C3.50061 17.4981 3.50061 18.8372 3.49787 20.1763C3.49787 20.2092 3.49119 20.2421 3.48657 20.2863L0.702148 20.2889Z" fill="white"/>
</g>
<defs>
<clipPath id="clip0_144_458">
<rect width="21" height="21" fill="white"/>
</clipPath>
</defs>
</svg>
