<svg width="20" height="21" viewBox="0 0 20 21" fill="none" xmlns="http://www.w3.org/2000/svg">
<g clip-path="url(#clip0_144_432)">
<path d="M10.2215 8.06879C12.0512 8.06879 13.5346 6.49622 13.5346 4.55637C13.5346 2.61651 12.0512 1.04395 10.2215 1.04395C8.39172 1.04395 6.9084 2.61651 6.9084 4.55637C6.9084 6.49622 8.39172 8.06879 10.2215 8.06879Z" fill="white"/>
<path d="M16.9238 8.06875C18.0805 8.06875 19.0183 7.0746 19.0183 5.84825C19.0183 4.62191 18.0805 3.62776 16.9238 3.62776C15.767 3.62776 14.8293 4.62191 14.8293 5.84825C14.8293 7.0746 15.767 8.06875 16.9238 8.06875Z" fill="white"/>
<path d="M3.51916 8.06875C4.67591 8.06875 5.61364 7.0746 5.61364 5.84825C5.61364 4.62191 4.67591 3.62776 3.51916 3.62776C2.36242 3.62776 1.42469 4.62191 1.42469 5.84825C1.42469 7.0746 2.36242 8.06875 3.51916 8.06875Z" fill="white"/>
<path d="M5.58279 10.0628C4.75833 9.34666 4.01167 9.44146 3.05838 9.44146C1.63261 9.44146 0.472656 10.6639 0.472656 12.1662V16.5753C0.472656 17.2277 0.974949 17.7582 1.59263 17.7582C4.25931 17.7582 3.93806 17.8094 3.93806 17.6363C3.93806 14.512 3.589 12.2208 5.58279 10.0628Z" fill="white"/>
<path d="M11.1282 9.45757C9.46313 9.31033 8.01585 9.45926 6.7675 10.5517C4.67847 12.3256 5.0805 14.7142 5.0805 17.6363C5.0805 18.4094 5.67381 19.0501 6.41411 19.0501C14.4524 19.0501 14.7723 19.325 15.249 18.2059C15.4053 17.8275 15.3625 17.9477 15.3625 14.3273C15.3625 11.4517 13.0139 9.45757 11.1282 9.45757Z" fill="white"/>
<path d="M17.3846 9.44142C16.4261 9.44142 15.6835 9.34759 14.8602 10.0628C16.8391 12.2048 16.5049 14.3396 16.5049 17.6363C16.5049 17.8104 16.2382 17.7582 18.8103 17.7582C19.4501 17.7582 19.9703 17.2087 19.9703 16.5333V12.1662C19.9703 10.6639 18.8103 9.44142 17.3846 9.44142Z" fill="white"/>
</g>
<defs>
<clipPath id="clip0_144_432">
<rect width="19.4976" height="20.04" fill="white" transform="translate(0.472656 0.0419922)"/>
</clipPath>
</defs>
</svg>
