<svg width="154" height="46" viewBox="0 0 154 46" fill="none" xmlns="http://www.w3.org/2000/svg">
<path fill-rule="evenodd" clip-rule="evenodd" d="M96.2891 5.42876C96.7529 5.35346 97.2486 6.00668 97.3955 6.88932C97.5425 7.77196 97.2822 8.54778 96.8184 8.62308C96.3546 8.69839 95.8572 8.04341 95.7102 7.16252C95.5633 6.28163 95.8235 5.51107 96.2891 5.42876Z" fill="#CDCDCE"/>
<path fill-rule="evenodd" clip-rule="evenodd" d="M121.375 18.2615C121.375 16.7449 123.388 16.6136 123.388 18.2615V26.2088C123.388 30.3033 121.988 32.8023 117.468 32.8023C113.498 32.8023 110.826 30.8357 111.478 26.2088C111.901 23.1984 111.421 19.1582 108.424 15.2073L109.708 14.6504C112.46 17.8832 113.891 22.997 113.491 26.2088C113.121 29.186 114.022 31.023 117.295 31.023C120.733 31.023 121.367 29.3243 121.367 26.2088L121.375 18.2615Z" fill="#C72E0B"/>
<path fill-rule="evenodd" clip-rule="evenodd" d="M87.7044 3.85254C76.1587 5.3814 67.0259 13.3094 66.7833 25.4195C66.2682 51.0336 107.905 48.9496 106.039 25.1901C101.891 23.0517 93.4932 25.803 87.5168 28.4089C86.0475 29.0481 85.6226 24.8275 87.2849 24.3179C92.1956 22.8083 104.457 22.5666 107.997 23.7488C108.102 23.7843 108.189 23.8593 108.239 23.9575C108.289 24.0557 108.298 24.1694 108.264 24.2741C107.241 40.2002 95.6955 46.7202 85.0136 45.9374C84.9433 45.9564 84.8697 45.9606 84.7977 45.9496L84.4259 45.8901C73.4077 44.8043 65.5105 36.1705 65.7265 25.3897C65.9814 12.5826 73.9972 4.4795 86.6724 2.39023C86.3502 0.362255 89.7137 -1.60443 91.8062 2.01896C94.9366 2.29748 97.9833 3.17036 100.78 4.58983C105.028 6.78592 108.746 10.2359 110.87 14.6264C111.212 15.3374 108.587 16.5037 108.038 16.0134C106.565 14.8173 105.292 14.4197 103.051 14.2218C98.2358 13.7945 89.5597 15.523 87.4106 19.6665C91.877 9.7123 118.351 15.4792 100.353 5.53727C98.0198 4.24833 95.1998 3.73696 92.4488 3.46376C92.5037 3.62313 92.5585 3.78424 92.6099 3.95587C88.4922 -1.99846 86.2086 2.68795 89.6004 4.61785C88.9259 4.48133 88.283 4.22181 87.7044 3.85254ZM95.4175 4.77897C94.9519 4.85427 94.6935 5.63008 94.8404 6.51273C94.9874 7.39537 95.4883 8.0556 95.9486 7.97329C96.4089 7.89098 96.6727 7.12042 96.5257 6.23953C96.3788 5.35864 95.8902 4.70366 95.4175 4.77897Z" fill="white"/>
<path fill-rule="evenodd" clip-rule="evenodd" d="M11.3813 27.4108L13.3941 27.9152C12.9752 29.5497 12.2193 30.7925 11.1264 31.6436C10.0336 32.4947 8.69818 32.9215 7.12028 32.9238C5.49044 32.9238 4.16274 32.594 3.13716 31.9343C2.08297 31.2412 1.26822 30.2457 0.802168 29.0815C0.263631 27.8084 -0.00914479 26.4407 0.000233882 25.0606C0.000233882 23.4984 0.301771 22.1354 0.904844 20.9714C1.46954 19.8486 2.36766 18.9235 3.47882 18.3199C4.60475 17.7121 5.86955 17.4003 7.15214 17.4145C8.67104 17.4145 9.94563 17.7975 10.9759 18.5634C12.0062 19.3293 12.7267 20.4034 13.1374 21.7857L11.1689 22.241C10.8148 21.1517 10.3068 20.3549 9.63938 19.8593C8.97198 19.3637 8.1311 19.1115 7.11674 19.1115C5.95544 19.1115 4.98001 19.3865 4.19932 19.9381C3.42312 20.4855 2.84632 21.2662 2.55474 22.164C2.23737 23.0914 2.0759 24.064 2.07677 25.0431C2.05329 26.1811 2.24357 27.3135 2.63794 28.3828C2.95876 29.2703 3.57566 30.0233 4.38697 30.5176C5.16113 30.9818 6.05038 31.2243 6.95564 31.2181C7.99064 31.2475 9.00156 30.9061 9.80224 30.2566C10.5794 29.6139 11.1052 28.6647 11.3813 27.3985V27.4108ZM15.2635 25.3706C15.2635 22.8814 15.9404 20.9328 17.294 19.5248C18.6477 18.1168 20.3938 17.4163 22.5323 17.4233C23.8637 17.405 25.1747 17.7485 26.3224 18.4163C27.4371 19.0667 28.3317 20.0296 28.8929 21.1833C29.5002 22.4396 29.8033 23.8188 29.778 25.2112C29.803 26.6201 29.4868 28.0144 28.8557 29.2776C28.2799 30.4322 27.359 31.3835 26.218 32.0026C25.0857 32.6171 23.8131 32.9342 22.5217 32.9238C21.1723 32.9446 19.8442 32.5896 18.689 31.8993C17.5798 31.235 16.6908 30.2648 16.131 29.1078C15.5552 27.9427 15.2584 26.6621 15.2635 25.3653V25.3706ZM17.3401 25.4056C17.3401 27.2129 17.831 28.6349 18.8129 29.6717C19.2808 30.178 19.8531 30.5791 20.491 30.848C21.129 31.1168 21.8178 31.2472 22.511 31.2303C24.0229 31.2303 25.262 30.7049 26.241 29.6542C27.22 28.6034 27.7033 27.1183 27.7033 25.1884C27.7296 24.094 27.519 23.0066 27.0854 21.9994C26.7021 21.1299 26.0646 20.3938 25.255 19.8856C24.445 19.3833 23.5059 19.1225 22.55 19.1343C21.8726 19.1242 21.2 19.2468 20.5707 19.4951C19.9415 19.7433 19.3682 20.1123 18.8837 20.5808C17.8593 21.544 17.3471 23.1523 17.3471 25.4056H17.3401ZM32.3414 32.6769V17.6667H34.4037L42.37 29.4493V17.6667H44.2996V32.6769H42.2301L34.2639 20.8943V32.6769H32.3414ZM47.7728 32.6769V17.6667H58.0086V19.4267H49.7857V24.1026H56.9075V25.8627H49.7857V32.6769H47.7728ZM60.9508 32.6769V17.6667H62.9653V32.6769H60.9508Z" fill="white"/>
<path fill-rule="evenodd" clip-rule="evenodd" d="M126.782 32.5502V17.54H133.509C134.864 17.54 135.892 17.6749 136.593 17.9446C137.301 18.2177 137.895 18.7202 138.278 19.3701C138.697 20.0508 138.915 20.8341 138.907 21.631C138.932 22.6307 138.557 23.5997 137.862 24.3262C137.165 25.0565 136.092 25.5171 134.637 25.7167C135.074 25.9085 135.481 26.1602 135.848 26.4645C136.486 27.0569 137.044 27.7286 137.508 28.4627L140.132 32.5502H137.623L135.617 29.4207C135.033 28.5153 134.555 27.827 134.171 27.3472C133.886 26.9626 133.542 26.6246 133.151 26.3454C132.871 26.1665 132.563 26.034 132.24 25.9532C131.871 25.8968 131.498 25.8734 131.124 25.8831H128.797V32.5502H126.782ZM128.797 24.1669H133.105C134.024 24.1669 134.738 24.0723 135.253 23.8832C135.736 23.7237 136.15 23.4055 136.425 22.9812C136.69 22.5821 136.831 22.1142 136.828 21.6363C136.837 21.3058 136.772 20.9774 136.638 20.6747C136.503 20.3719 136.303 20.1023 136.051 19.885C135.533 19.4262 134.713 19.1973 133.592 19.1985H128.797V24.1669ZM151.987 17.5418H154V26.2106C154 27.7202 153.828 28.9186 153.485 29.806C153.122 30.7111 152.465 31.4716 151.619 31.9688C150.718 32.5239 149.542 32.8041 148.078 32.8041C146.662 32.8041 145.499 32.5625 144.598 32.0774C143.724 31.6241 143.04 30.8797 142.667 29.9758C142.283 29.057 142.09 27.8025 142.088 26.2123V17.5435H144.101V26.2088C144.101 27.5118 144.225 28.4855 144.469 29.0914C144.702 29.7011 145.148 30.208 145.726 30.5205C146.395 30.8743 147.146 31.0477 147.905 31.0231C149.374 31.0231 150.422 30.6927 151.049 30.0319C151.676 29.3711 151.988 28.0967 151.985 26.2088L151.987 17.5418Z" fill="white"/>
<path fill-rule="evenodd" clip-rule="evenodd" d="M121.82 17.6162C122.351 17.0365 123.209 17.2659 123.209 18.4375V26.1431C123.209 30.0379 121.876 32.4144 117.58 32.4144C116.749 32.4252 115.92 32.3148 115.121 32.0869C115.808 32.2449 116.511 32.3213 117.215 32.3146C121.512 32.3146 122.845 29.9399 122.845 26.045V18.6897C122.845 17.7353 122.374 17.406 121.82 17.6162Z" fill="#F7B9B0"/>
</svg>
