<svg width="167" height="169" viewBox="0 0 167 169" fill="none" xmlns="http://www.w3.org/2000/svg">
<path d="M137.033 145.351C137.274 145.307 137.501 145.204 137.694 145.051C137.886 144.899 138.038 144.702 138.136 144.477C138.234 144.252 138.276 144.006 138.257 143.762C138.238 143.517 138.159 143.281 138.027 143.074L127.307 126.095C132.366 121.081 136.512 115.224 139.559 108.786L159.268 113.252C159.507 113.307 159.756 113.303 159.992 113.24C160.229 113.176 160.447 113.057 160.628 112.89C160.808 112.724 160.945 112.516 161.026 112.285C161.108 112.054 161.132 111.806 161.097 111.564C160.752 109.43 160.606 105.703 161.892 100.073C163.178 94.4423 164.938 91.1341 166.178 89.3607C166.317 89.1573 166.404 88.923 166.431 88.6782C166.459 88.4334 166.425 88.1857 166.335 87.9567C166.244 87.7278 166.098 87.5246 165.911 87.365C165.723 87.2054 165.499 87.0942 165.259 87.0413L145.513 82.5668C145.542 75.4761 144.336 68.4346 141.948 61.7581L159.111 51.0091C159.32 50.8803 159.494 50.7022 159.618 50.4905C159.742 50.2787 159.812 50.0398 159.823 49.7947C159.833 49.5495 159.783 49.3056 159.677 49.0843C159.571 48.863 159.412 48.6711 159.215 48.5253C157.449 47.2609 154.708 44.7215 151.618 39.8361C148.527 34.9507 147.419 31.3747 147.04 29.2329C146.992 28.9918 146.886 28.766 146.732 28.5749C146.577 28.3838 146.379 28.2332 146.153 28.1362C145.927 28.0391 145.681 27.9984 145.436 28.0177C145.191 28.037 144.955 28.1156 144.747 28.2468L127.583 38.9984C122.572 33.9607 116.726 29.829 110.305 26.7862L114.811 7.11737C114.866 6.87756 114.861 6.628 114.798 6.39045C114.734 6.1529 114.613 5.93457 114.445 5.75448C114.278 5.57439 114.069 5.438 113.836 5.35722C113.604 5.27643 113.355 5.25369 113.112 5.29098C110.97 5.63558 107.225 5.78137 101.571 4.49574C95.9166 3.21011 92.6084 1.4924 90.8139 0.259781C90.6106 0.1222 90.377 0.0361876 90.1331 0.00917906C89.8891 -0.0178295 89.6423 0.0149791 89.4139 0.104768C89.1855 0.194557 88.9825 0.338624 88.8223 0.524512C88.662 0.710401 88.5495 0.932516 88.4944 1.17165L83.9881 20.7875C76.8472 20.7302 69.7506 21.9142 63.015 24.2865L52.3164 7.31618C52.1858 7.10799 52.0062 6.9349 51.7933 6.81196C51.5804 6.68903 51.3408 6.61999 51.0951 6.61084C50.8495 6.6017 50.6053 6.65272 50.3839 6.75949C50.1625 6.86625 49.9705 7.02551 49.8247 7.2234C48.5497 8.97292 46.0076 11.7138 41.093 14.7914C36.1784 17.869 32.5813 18.9664 30.4448 19.3455C30.2038 19.3902 29.9774 19.4934 29.7854 19.6459C29.5935 19.7984 29.4419 19.9956 29.3438 20.2203C29.2457 20.445 29.2042 20.6903 29.2228 20.9347C29.2415 21.1791 29.3197 21.4153 29.4507 21.6225L40.1228 38.5425C35.0142 43.5526 30.8203 49.4168 27.7304 55.8707L8.21793 51.4465C7.97874 51.3913 7.72969 51.3953 7.4924 51.4581C7.2551 51.521 7.03673 51.6408 6.85624 51.8072C6.67575 51.9735 6.5386 52.1815 6.4567 52.4129C6.37479 52.6443 6.3506 52.8922 6.38623 53.1351C6.73349 55.2689 6.87133 59.0013 5.591 64.6315C4.31067 70.2618 2.53464 73.57 1.29407 75.3434C1.15519 75.547 1.06841 75.7815 1.04134 76.0265C1.01427 76.2714 1.04774 76.5193 1.13882 76.7483C1.22989 76.9773 1.37579 77.1804 1.56369 77.3399C1.7516 77.4993 1.97578 77.6102 2.21654 77.6628L21.676 82.0737C21.625 89.2412 22.8345 96.3618 25.2492 103.11L8.37432 113.682C8.16444 113.81 7.98936 113.987 7.86457 114.199C7.73979 114.411 7.66916 114.65 7.65894 114.896C7.64872 115.142 7.69921 115.386 7.80596 115.607C7.91272 115.829 8.07242 116.021 8.27094 116.166C10.0284 117.433 12.7773 119.972 15.8681 124.855C18.9589 129.738 20.059 133.329 20.4434 135.45C20.4905 135.691 20.5958 135.918 20.7502 136.109C20.9046 136.301 21.1034 136.451 21.3294 136.549C21.5554 136.646 21.8016 136.686 22.0468 136.667C22.292 136.647 22.5287 136.568 22.7363 136.436L39.6139 125.865C44.6795 130.962 50.6012 135.13 57.1091 138.178L52.669 157.566C52.613 157.805 52.6165 158.055 52.6792 158.292C52.7419 158.53 52.862 158.749 53.0288 158.93C53.1957 159.111 53.4043 159.248 53.6364 159.329C53.8685 159.411 54.117 159.434 54.3602 159.397C56.5047 159.053 60.2529 158.902 65.907 160.192C71.5612 161.483 74.8826 163.22 76.6639 164.455C76.8674 164.592 77.1012 164.678 77.3453 164.705C77.5893 164.732 77.8363 164.7 78.0648 164.61C78.2934 164.52 78.4967 164.376 78.6572 164.19C78.8177 164.004 78.9305 163.782 78.986 163.543L83.4394 144.105C90.6144 144.128 97.7389 142.904 104.495 140.487L115.175 157.399C115.305 157.606 115.485 157.779 115.698 157.902C115.91 158.025 116.15 158.094 116.395 158.103C116.641 158.113 116.885 158.062 117.106 157.956C117.328 157.85 117.52 157.691 117.666 157.494C118.939 155.744 121.489 152.988 126.395 149.926C131.302 146.864 134.896 145.735 137.033 145.351ZM104.871 116.136C86.1776 127.845 61.4961 122.246 49.7346 103.638C37.973 85.0294 43.6139 60.4565 62.3073 48.748C81.0006 37.0395 105.685 42.6273 117.444 61.2359C129.203 79.8444 123.567 104.436 104.871 116.136Z" fill="#443DB6"/>
<path d="M135.999 148.669C136.241 148.625 136.467 148.522 136.66 148.369C136.852 148.216 137.004 148.019 137.102 147.794C137.2 147.569 137.242 147.323 137.223 147.078C137.204 146.833 137.125 146.597 136.993 146.39L126.273 129.425C131.332 124.41 135.477 118.552 138.523 112.112L158.234 116.579C158.473 116.634 158.722 116.631 158.959 116.568C159.197 116.505 159.415 116.385 159.595 116.218C159.775 116.052 159.912 115.844 159.994 115.613C160.076 115.381 160.099 115.133 160.063 114.89C159.718 112.77 159.573 109.032 160.858 103.399C162.144 97.7664 163.907 94.4608 165.145 92.6874C165.284 92.4844 165.371 92.2504 165.398 92.006C165.425 91.7615 165.392 91.514 165.302 91.2853C165.211 91.0565 165.066 90.8535 164.879 90.6941C164.691 90.5346 164.468 90.4235 164.227 90.3707L144.479 85.8802C144.505 78.7933 143.298 71.7559 140.914 65.0821L158.083 54.3358C158.292 54.2065 158.465 54.0279 158.589 53.8159C158.713 53.6038 158.783 53.3646 158.793 53.1193C158.803 52.874 158.752 52.63 158.646 52.4086C158.54 52.1872 158.381 51.9952 158.184 51.8494C156.421 50.5876 153.677 48.0455 150.589 43.1601C147.501 38.2747 146.39 34.7015 146.011 32.5702C145.963 32.3294 145.857 32.1039 145.703 31.9131C145.548 31.7223 145.349 31.5721 145.124 31.4753C144.898 31.3785 144.652 31.338 144.407 31.3575C144.162 31.3769 143.926 31.4556 143.718 31.5868L126.539 42.3357C121.527 37.2988 115.682 33.168 109.261 30.1262L113.767 10.4573C113.822 10.2174 113.817 9.96782 113.753 9.73021C113.689 9.49259 113.568 9.27416 113.401 9.0939C113.233 8.91364 113.024 8.77701 112.792 8.69586C112.56 8.61472 112.311 8.59153 112.068 8.6283C109.923 8.9729 106.181 9.12135 100.526 7.83306C94.8722 6.54478 91.5508 4.80321 89.7695 3.57059C89.565 3.43542 89.3308 3.35191 89.0869 3.32726C88.8431 3.3026 88.5969 3.33754 88.3695 3.42906C88.1421 3.52059 87.9404 3.66596 87.7816 3.85268C87.6228 4.0394 87.5118 4.26189 87.458 4.50102L82.9649 24.1169C75.8234 24.0602 68.7262 25.2432 61.9892 27.6132L51.2694 10.6482C51.139 10.4398 50.9595 10.2665 50.7468 10.1434C50.534 10.0202 50.2944 9.9509 50.0488 9.94149C49.8031 9.93208 49.5589 9.98286 49.3374 10.0894C49.1158 10.1959 48.9237 10.355 48.7777 10.5528C47.5053 12.3023 44.9632 15.0432 40.0486 18.1208C35.1341 21.1983 31.5449 22.2984 29.411 22.6828C29.17 22.7276 28.9436 22.8307 28.7517 22.9832C28.5597 23.1357 28.4081 23.3329 28.31 23.5576C28.2119 23.7823 28.1704 24.0276 28.189 24.272C28.2077 24.5165 28.2859 24.7526 28.417 24.9598L39.097 41.8745C33.9869 46.8834 29.7928 52.7479 26.7046 59.2027L7.18415 54.7653C6.94472 54.7099 6.69539 54.7139 6.45784 54.7769C6.2203 54.8398 6.00175 54.9599 5.82119 55.1266C5.64064 55.2933 5.50355 55.5016 5.42185 55.7334C5.34016 55.9652 5.31634 56.2134 5.35245 56.4565C5.69971 58.5771 5.83755 62.32 4.55722 67.9529C3.27689 73.5859 1.50086 76.8887 0.260288 78.6621C0.121846 78.8654 0.0354964 79.0996 0.00883953 79.3441C-0.0178173 79.5886 0.0160362 79.8359 0.10742 80.0642C0.198804 80.2925 0.344917 80.4949 0.532896 80.6535C0.720874 80.812 0.944955 80.922 1.18541 80.9736L20.6449 85.3845C20.5928 92.5547 21.8023 99.678 24.2181 106.429L7.34055 117C7.13066 117.128 6.95558 117.306 6.83079 117.518C6.70601 117.73 6.63538 117.969 6.62516 118.215C6.61493 118.46 6.66543 118.705 6.77219 118.926C6.87894 119.148 7.03864 119.339 7.23716 119.484C8.99199 120.751 11.7435 123.288 14.8343 128.174C17.9251 133.059 19.0252 136.638 19.4096 138.763C19.4565 139.005 19.5617 139.231 19.7162 139.423C19.8706 139.614 20.0696 139.765 20.2957 139.862C20.5218 139.959 20.7682 139.999 21.0134 139.979C21.2586 139.959 21.4952 139.879 21.7025 139.747L38.5774 129.178C43.6433 134.275 49.565 138.441 56.0726 141.488L51.6299 160.876C51.5744 161.116 51.5784 161.366 51.6415 161.603C51.7046 161.841 51.8249 162.06 51.992 162.241C52.159 162.421 52.3677 162.558 52.5998 162.64C52.832 162.721 53.0805 162.745 53.3238 162.708C55.4656 162.363 59.2165 162.215 64.8706 163.503C70.5247 164.792 73.8462 166.533 75.6275 167.766C75.8306 167.904 76.0643 167.99 76.3084 168.018C76.5525 168.045 76.7996 168.013 77.0283 167.923C77.257 167.834 77.4605 167.69 77.621 167.504C77.7815 167.318 77.8943 167.096 77.9496 166.857L82.4003 147.416C89.5744 147.441 96.6982 146.217 103.453 143.8L114.13 160.712C114.261 160.92 114.441 161.093 114.653 161.215C114.866 161.338 115.106 161.407 115.351 161.417C115.596 161.426 115.84 161.375 116.062 161.269C116.283 161.163 116.476 161.005 116.622 160.807C117.897 159.058 120.444 156.301 125.354 153.239C130.263 150.178 133.863 149.054 135.999 148.669ZM103.837 119.455C85.1412 131.164 60.4623 125.552 48.7008 106.954C36.9393 88.3561 42.5801 63.7726 61.2735 52.0641C79.9669 40.3556 104.651 45.9434 116.41 64.5546C128.169 83.1658 122.531 107.747 103.837 119.455Z" fill="url(#paint0_linear_147_313)"/>
<path d="M107.718 125.282C129.719 111.513 136.325 82.6199 122.507 60.7323C108.688 38.8447 79.6726 32.2761 57.6922 46.0416C35.7119 59.8072 29.0849 88.7193 42.9008 110.588C56.7167 132.457 85.7455 139.05 107.718 125.282ZM103.829 119.45C85.1358 131.158 60.4543 125.56 48.706 106.949C36.9578 88.3376 42.5827 63.7674 61.2761 52.0589C79.9695 40.3504 104.654 45.9382 116.412 64.5494C128.171 83.1606 122.533 107.741 103.837 119.45H103.829Z" fill="#443DB6"/>
<path d="M103.837 119.45C122.533 107.742 128.164 83.1581 116.413 64.5496C104.662 45.941 79.9804 40.3505 61.2764 52.0591C42.5725 63.7676 36.9554 88.3404 48.7064 106.949C60.4573 125.557 85.1441 131.159 103.837 119.45ZM97.9554 109.82C84.5583 118.22 66.8669 114.207 58.4427 100.865C56.4413 97.6923 55.0865 94.1551 54.4563 90.4569C53.826 86.7586 53.9327 82.9723 54.7702 79.3155C55.6077 75.6586 57.1595 72.2033 59.3364 69.1479C61.5133 66.0926 64.2725 63.4975 67.4554 61.5118C80.8578 53.1167 98.5545 57.1274 106.979 70.4688C108.98 73.6421 110.335 77.1797 110.965 80.8783C111.595 84.5768 111.487 88.3634 110.649 92.0203C109.81 95.6772 108.257 99.1323 106.079 102.187C103.9 105.242 101.14 107.836 97.9554 109.82Z" fill="url(#paint1_linear_147_313)"/>
<defs>
<linearGradient id="paint0_linear_147_313" x1="40.9034" y1="106.553" x2="160.382" y2="49.062" gradientUnits="userSpaceOnUse">
<stop offset="0.02" stop-color="#5D53F5"/>
<stop offset="1" stop-color="#807BDA"/>
</linearGradient>
<linearGradient id="paint1_linear_147_313" x1="53.5701" y1="66.6757" x2="114.06" y2="106.471" gradientUnits="userSpaceOnUse">
<stop stop-color="#9D97FF"/>
<stop offset="0.98" stop-color="#9993FF"/>
</linearGradient>
</defs>
</svg>
