<svg width="120" height="120" viewBox="0 0 120 120" fill="none" xmlns="http://www.w3.org/2000/svg">
<path d="M6.44542 83.6406C6.42403 83.8156 6.44593 83.9931 6.50922 84.1576C6.57251 84.3222 6.67524 84.4686 6.80838 84.5841C6.94152 84.6997 7.10099 84.7807 7.27279 84.8202C7.44459 84.8596 7.62346 84.8563 7.79367 84.8105L21.7031 81.0757C24.0616 85.6078 27.1931 89.6934 30.9566 93.1485L23.7065 105.698C23.6176 105.85 23.5673 106.022 23.56 106.198C23.5526 106.373 23.5884 106.549 23.6643 106.708C23.7401 106.866 23.8537 107.004 23.9952 107.109C24.1366 107.214 24.3016 107.283 24.4757 107.31C26.0111 107.529 28.5935 108.219 32.1762 110.301C35.7588 112.384 37.6511 114.288 38.6103 115.513C38.7195 115.652 38.8612 115.761 39.0227 115.832C39.1842 115.903 39.3608 115.933 39.5367 115.92C39.7126 115.907 39.8826 115.85 40.0317 115.756C40.1807 115.662 40.3043 115.532 40.3914 115.379L47.6562 102.803C52.5057 104.327 57.5835 104.996 62.6624 104.78L66.3766 118.818C66.4221 118.987 66.5084 119.143 66.628 119.272C66.7475 119.401 66.8967 119.498 67.0626 119.556C67.2284 119.613 67.4058 119.63 67.5794 119.603C67.753 119.576 67.9174 119.508 68.0583 119.403C69.2954 118.464 71.6205 117.122 75.6243 116.048C79.628 114.975 82.3099 114.969 83.8512 115.171C84.0271 115.191 84.2054 115.169 84.3704 115.104C84.5354 115.04 84.682 114.936 84.7975 114.802C84.913 114.668 84.9938 114.507 85.0328 114.334C85.0718 114.161 85.0677 113.982 85.021 113.811L81.3068 99.7728C85.8222 97.4118 89.8941 94.2859 93.3416 90.5339L105.844 97.8016C105.997 97.8898 106.169 97.9394 106.345 97.9461C106.521 97.9527 106.696 97.9163 106.855 97.8399C107.014 97.7635 107.151 97.6495 107.256 97.5078C107.361 97.366 107.429 97.2008 107.456 97.0266C107.675 95.4853 108.371 92.8882 110.451 89.288C112.53 85.6878 114.434 83.7839 115.656 82.8276C115.794 82.7177 115.903 82.576 115.973 82.4147C116.044 82.2534 116.074 82.0773 116.061 81.9017C116.049 81.7261 115.994 81.5562 115.901 81.4067C115.808 81.2572 115.68 81.1325 115.528 81.0435L103.037 73.7905C104.594 68.9117 105.291 63.7995 105.099 58.6819L119.008 54.9472C119.178 54.9009 119.334 54.8139 119.462 54.6937C119.591 54.5736 119.688 54.4239 119.745 54.2577C119.803 54.0915 119.819 53.9137 119.793 53.7398C119.766 53.5659 119.698 53.4011 119.593 53.2597C118.666 52.0167 117.329 49.6917 116.265 45.6557C115.2 41.6197 115.212 38.9291 115.402 37.3995C115.424 37.2242 115.402 37.0463 115.338 36.8815C115.275 36.7167 115.172 36.57 115.038 36.4544C114.905 36.3388 114.745 36.2578 114.573 36.2186C114.4 36.1794 114.221 36.1832 114.051 36.2297L100.197 39.9498C97.8504 35.3856 94.7248 31.2663 90.9609 27.7775L98.1409 15.3479C98.2296 15.1957 98.2799 15.024 98.2872 14.8479C98.2945 14.6718 98.2587 14.4966 98.1829 14.3374C98.1071 14.1783 97.9936 14.0401 97.8522 13.9349C97.7108 13.8296 97.5459 13.7605 97.3717 13.7335C95.8392 13.5171 93.2538 12.8181 89.6712 10.7387C86.0885 8.65933 84.1934 6.75248 83.237 5.52706C83.127 5.38938 82.9849 5.28076 82.8231 5.21068C82.6614 5.1406 82.485 5.1112 82.3093 5.12505C82.1335 5.1389 81.9639 5.19556 81.8151 5.29012C81.6664 5.38467 81.5431 5.51422 81.4559 5.66744L74.314 18.0766C69.4133 16.5167 64.2765 15.8306 59.1382 16.0498L55.4854 2.24273C55.4403 2.07319 55.3544 1.91728 55.2351 1.78865C55.1158 1.66001 54.9668 1.56256 54.8012 1.50484C54.6355 1.44712 54.4583 1.43087 54.2849 1.45754C54.1115 1.48421 53.9473 1.55297 53.8066 1.6578C52.5637 2.59368 50.2415 3.94192 46.2377 5.01525C42.2339 6.08859 39.5491 6.08859 38.0137 5.89264C37.8378 5.87202 37.6595 5.89489 37.4945 5.95924C37.3295 6.02359 37.1829 6.12745 37.0674 6.26172C36.9519 6.39598 36.8711 6.55653 36.8321 6.72929C36.7932 6.90205 36.7972 7.08175 36.8439 7.25259L40.5113 21.0539C35.9443 23.4383 31.8313 26.606 28.3596 30.4126L16.0235 23.2502C15.8713 23.1615 15.6996 23.1112 15.5235 23.1039C15.3474 23.0966 15.1722 23.1324 15.0131 23.2082C14.8539 23.284 14.7157 23.3975 14.6105 23.5389C14.5052 23.6803 14.4361 23.8452 14.4091 24.0194C14.1898 25.5607 13.4937 28.1607 11.4143 31.7638C9.33494 35.3669 7.43102 37.2679 6.20853 38.2243C6.07109 38.3344 5.96251 38.4763 5.89217 38.6377C5.82183 38.7991 5.79185 38.9753 5.80481 39.1509C5.81776 39.3265 5.87327 39.4964 5.96653 39.6457C6.0598 39.7951 6.18802 39.9195 6.34012 40.0083L18.6995 47.2057C17.1585 52.1142 16.4826 57.2533 16.702 62.3933L2.84813 66.1134C2.67843 66.1597 2.52257 66.2467 2.39407 66.3669C2.26557 66.487 2.16831 66.6367 2.1107 66.8029C2.05308 66.9691 2.03687 67.1469 2.06345 67.3208C2.09002 67.4947 2.15858 67.6595 2.26321 67.8009C3.19031 69.0438 4.52979 71.3748 5.59142 75.4049C6.65306 79.435 6.63552 82.0964 6.44542 83.6406ZM33.2934 67.8214C32.32 64.1965 32.07 60.4155 32.5579 56.6941C33.0457 52.9727 34.2618 49.3838 36.1366 46.1324C38.0114 42.8809 40.5083 40.0306 43.4847 37.7441C46.4611 35.4577 49.8586 33.7798 53.4835 32.8064C57.1083 31.833 60.8893 31.5831 64.6107 32.0709C68.3321 32.5587 71.921 33.7748 75.1724 35.6496C78.4239 37.5244 81.2742 40.0213 83.5607 42.9977C85.8472 45.9741 87.525 49.3717 88.4984 52.9965C92.5461 68.2922 83.471 84.012 68.2279 88.0919C64.603 89.064 60.8217 89.3105 57.1012 88.817C53.3807 88.3235 49.7944 87.0999 46.5483 85.2163C43.3021 83.3327 40.4601 80.8264 38.1854 77.8412C35.9107 74.8561 34.2482 71.4509 33.2934 67.8214Z" fill="#386C2D"/>
<path d="M4.39261 82.2277C4.37029 82.4032 4.39168 82.5814 4.45487 82.7466C4.51806 82.9118 4.6211 83.0588 4.75481 83.1746C4.88853 83.2904 5.04878 83.3713 5.22131 83.4102C5.39385 83.4491 5.57332 83.4447 5.74378 83.3976L19.6503 79.6687C22.0091 84.2006 25.1405 88.2861 28.9038 91.7415L21.6537 104.294C21.5648 104.446 21.5145 104.617 21.5071 104.793C21.4998 104.969 21.5356 105.144 21.6115 105.303C21.6873 105.462 21.8009 105.6 21.9423 105.705C22.0838 105.81 22.2488 105.879 22.4229 105.905C23.9583 106.122 26.5407 106.815 30.1234 108.894C33.706 110.974 35.6012 112.884 36.5575 114.109C36.667 114.247 36.8088 114.357 36.9705 114.428C37.1321 114.498 37.3087 114.528 37.4847 114.515C37.6606 114.501 37.8306 114.444 37.9795 114.35C38.1284 114.255 38.2517 114.125 38.3386 113.971L45.6033 101.396C50.4519 102.914 55.5276 103.578 60.6037 103.358L64.318 117.396C64.3641 117.565 64.4507 117.721 64.5703 117.849C64.69 117.977 64.8391 118.074 65.0047 118.132C65.1703 118.189 65.3474 118.206 65.5208 118.18C65.6941 118.153 65.8585 118.085 65.9996 117.981C67.2397 117.042 69.5647 115.7 73.5656 114.624C77.5665 113.547 80.2513 113.547 81.7925 113.746C81.9686 113.766 82.1469 113.743 82.3118 113.678C82.4767 113.614 82.6233 113.509 82.7387 113.375C82.8541 113.24 82.9348 113.08 82.9738 112.907C83.0128 112.734 83.0089 112.554 82.9624 112.383L79.2481 98.3453C83.7629 95.9833 87.8346 92.8575 91.2829 89.1064L103.8 96.3711C103.953 96.4601 104.125 96.5103 104.301 96.5173C104.477 96.5243 104.653 96.488 104.812 96.4115C104.971 96.335 105.109 96.2207 105.213 96.0785C105.318 95.9364 105.386 95.7707 105.412 95.5961C105.631 94.0549 106.327 91.4607 108.407 87.8605C110.486 84.2603 112.39 82.3564 113.612 81.3971C113.75 81.2872 113.859 81.1455 113.929 80.9842C114 80.8229 114.03 80.6469 114.017 80.4712C114.005 80.2956 113.95 80.1257 113.857 79.9762C113.764 79.8267 113.636 79.7021 113.484 79.6131L100.996 72.363C102.551 67.4829 103.249 62.37 103.057 57.2515L116.964 53.5197C117.134 53.4734 117.29 53.3863 117.418 53.2662C117.547 53.146 117.644 52.9964 117.701 52.8302C117.759 52.6639 117.775 52.4862 117.749 52.3123C117.722 52.1384 117.654 51.9736 117.549 51.8322C116.622 50.5863 115.285 48.2641 114.221 44.2282C113.156 40.1922 113.168 37.5162 113.358 35.972C113.379 35.7967 113.358 35.6188 113.294 35.454C113.231 35.2892 113.128 35.1425 112.994 35.0269C112.861 34.9113 112.701 34.8303 112.529 34.7911C112.356 34.7519 112.177 34.7557 112.007 34.8022L98.1528 38.5223C95.8071 33.9576 92.6814 29.8381 88.9169 26.35L96.0968 13.9175C96.1849 13.7655 96.2347 13.5943 96.2419 13.4188C96.2491 13.2433 96.2134 13.0687 96.1379 12.91C96.0625 12.7514 95.9496 12.6135 95.8089 12.5082C95.6683 12.403 95.5041 12.3336 95.3306 12.306C93.7952 12.0896 91.2098 11.3906 87.6271 9.31119C84.0445 7.23179 82.1493 5.32494 81.193 4.0966C81.0831 3.95841 80.9409 3.84939 80.779 3.77911C80.617 3.70884 80.4402 3.67949 80.2643 3.69364C80.0883 3.7078 79.9185 3.76503 79.7698 3.8603C79.6212 3.95556 79.4983 4.08594 79.4119 4.23992L72.2554 16.6315C67.3548 15.0706 62.218 14.3836 57.0796 14.6018L53.4267 0.797644C53.3816 0.628106 53.2957 0.472202 53.1764 0.343565C53.0572 0.214927 52.9082 0.11748 52.7425 0.0597605C52.5769 0.0020408 52.3996 -0.0141915 52.2262 0.0124747C52.0528 0.0391408 51.8886 0.107891 51.748 0.212721C50.505 1.14567 48.1829 2.49391 44.182 3.57017C40.1811 4.64643 37.4934 4.64058 35.955 4.44756C35.779 4.42749 35.6007 4.45085 35.4358 4.51559C35.2709 4.58032 35.1243 4.68445 35.0089 4.8189C34.8935 4.95335 34.8127 5.11401 34.7738 5.28685C34.7348 5.45969 34.7387 5.63947 34.7852 5.81044L38.4644 19.638C33.8981 22.0236 29.7852 25.1911 26.3126 28.9968L13.9766 21.8315C13.8241 21.7427 13.6522 21.6925 13.4759 21.6853C13.2996 21.6782 13.1242 21.7142 12.9651 21.7903C12.8059 21.8665 12.6677 21.9804 12.5627 22.1221C12.4576 22.2639 12.3888 22.4291 12.3622 22.6036C12.1428 24.1448 11.4468 26.7448 9.36738 30.345C7.28798 33.9452 5.38698 35.8492 4.16157 36.8084C4.02413 36.9185 3.91554 37.0604 3.84521 37.2219C3.77487 37.3833 3.74489 37.5594 3.75785 37.7351C3.7708 37.9107 3.8263 38.0805 3.91957 38.2299C4.01284 38.3793 4.14106 38.5037 4.29316 38.5924L16.6614 45.7724C15.1198 50.6817 14.4449 55.8219 14.6668 60.9628L0.795334 64.6976C0.626104 64.7441 0.47072 64.831 0.342594 64.951C0.214467 65.0709 0.117446 65.2202 0.0598786 65.386C0.00231074 65.5518 -0.0140788 65.7291 0.0121465 65.9027C0.0383718 66.0762 0.106422 66.2408 0.210411 66.3821C1.13751 67.628 2.47699 69.956 3.53862 73.9715C4.60026 77.987 4.58271 80.6835 4.39261 82.2277ZM31.2406 66.4084C30.2237 62.7696 29.9383 58.9652 30.401 55.2154C30.8637 51.4655 32.0653 47.8447 33.9363 44.5621C35.8072 41.2796 38.3104 38.4006 41.3011 36.0917C44.2918 33.7827 47.7105 32.0896 51.3597 31.1103C55.0089 30.131 58.816 29.8848 62.5608 30.3862C66.3057 30.8876 69.914 32.1264 73.1771 34.0311C76.4401 35.9358 79.2931 38.4686 81.5711 41.4829C83.8491 44.4972 85.5069 47.9333 86.4485 51.5924C90.4933 66.8852 81.4211 82.5933 66.1751 86.6877C62.5496 87.6598 58.7677 87.9058 55.0468 87.4118C51.3259 86.9177 47.7392 85.6933 44.493 83.8089C41.2467 81.9245 38.4048 79.4172 36.1305 76.431C33.8563 73.4449 32.1944 70.0388 31.2406 66.4084Z" fill="url(#paint0_linear_147_311)"/>
<path opacity="0.41" d="M26.424 67.8327C27.5446 72.1015 29.4979 76.1067 32.1716 79.6181C34.8453 83.1296 38.1866 86.0779 42.0035 88.2937C45.8204 90.5096 50.0376 91.9492 54.4127 92.5298C58.7878 93.1104 63.2345 92.8206 67.4973 91.6771C85.4222 86.8631 96.0942 68.3854 91.3358 50.402C90.2154 46.1332 88.2624 42.1278 85.5891 38.6162C82.9158 35.1046 79.5749 32.1559 75.7584 29.9395C71.9418 27.7232 67.7249 26.283 63.35 25.7016C58.9751 25.1202 54.5283 25.4091 50.2654 26.5517C32.3229 31.3657 21.6656 49.8375 26.424 67.8327ZM31.2437 66.4084C27.1961 51.1156 36.2799 35.4075 51.523 31.313C55.1482 30.3406 58.9298 30.0944 62.6504 30.5883C66.3711 31.0822 69.9574 32.3067 73.2033 34.1912C76.4492 36.0757 79.2906 38.5832 81.5642 41.5695C83.8378 44.5558 85.4988 47.962 86.4517 51.5923C90.4964 66.8851 81.4243 82.5932 66.1783 86.6877C62.5527 87.6593 58.771 87.9051 55.0502 87.4108C51.3294 86.9166 47.7429 85.6922 44.4968 83.8078C41.2506 81.9234 38.4087 79.4162 36.1343 76.4303C33.86 73.4444 32.198 70.0385 31.2437 66.4084Z" fill="#386C2D"/>
<path d="M31.2432 66.4089C32.1975 70.039 33.8595 73.4449 36.1339 76.4308C38.4082 79.4167 41.2501 81.9239 44.4963 83.8083C47.7424 85.6926 51.3289 86.9171 55.0497 87.4113C58.7705 87.9056 62.5523 87.6598 66.1778 86.6882C81.4238 82.5937 90.4959 66.8739 86.4512 51.5928C85.4983 47.9625 83.8373 44.5562 81.5637 41.57C79.2901 38.5837 76.4487 36.0762 73.2028 34.1917C69.9569 32.3072 66.3706 31.0827 62.6499 30.5888C58.9293 30.0949 55.1477 30.3411 51.5225 31.3135C36.2794 35.3992 27.1956 51.1161 31.2432 66.4089ZM39.09 64.426C38.0477 60.5084 38.1909 56.3696 39.5015 52.5334C40.8121 48.6972 43.2313 45.336 46.4528 42.8751C49.6743 40.4142 53.5534 38.9643 57.5992 38.7087C61.6451 38.4531 65.6758 39.4034 69.1814 41.4394C72.687 43.4753 75.5098 46.5054 77.2928 50.1462C79.0757 53.7869 79.7386 57.8748 79.1975 61.8924C78.6565 65.91 76.9358 69.6769 74.2533 72.7163C71.5707 75.7557 68.0469 77.9311 64.1276 78.9672C58.8805 80.3249 53.3097 79.5599 48.6229 76.8379C43.936 74.1159 40.5109 69.6563 39.09 64.426Z" fill="url(#paint1_linear_147_311)"/>
<defs>
<linearGradient id="paint0_linear_147_311" x1="56.969" y1="56.1103" x2="83.2834" y2="119.895" gradientUnits="userSpaceOnUse">
<stop offset="0.02" stop-color="#5BBA47"/>
<stop offset="1" stop-color="#AEFF9D"/>
</linearGradient>
<linearGradient id="paint1_linear_147_311" x1="30.8933" y1="52.8603" x2="86.2947" y2="67.139" gradientUnits="userSpaceOnUse">
<stop offset="0.02" stop-color="#83C077"/>
<stop offset="1" stop-color="#B3FFA3"/>
</linearGradient>
</defs>
</svg>
