<svg width="96" height="97" viewBox="0 0 96 97" fill="none" xmlns="http://www.w3.org/2000/svg">
<path d="M2.7961 33.4552C2.68813 33.5479 2.6046 33.6657 2.55286 33.7982C2.50113 33.9307 2.48277 34.0739 2.49941 34.2152C2.51605 34.3565 2.56718 34.4915 2.64829 34.6084C2.7294 34.7253 2.83801 34.8204 2.96455 34.8854L13.3193 40.2503C12.2539 44.2467 11.8947 48.3984 12.2577 52.5183L1.07032 56.0652C0.933562 56.1065 0.808965 56.1806 0.707357 56.281C0.60575 56.3815 0.530205 56.5052 0.487291 56.6414C0.444377 56.7777 0.435392 56.9224 0.461116 57.0629C0.486841 57.2034 0.546497 57.3355 0.634898 57.4478C1.43581 58.4012 2.60223 60.2414 3.60655 63.4419C4.61088 66.6424 4.70304 68.8132 4.60134 70.0654C4.59127 70.2081 4.61638 70.3511 4.67446 70.4818C4.73254 70.6125 4.82183 70.727 4.93447 70.8152C5.04712 70.9034 5.17969 70.9625 5.32054 70.9875C5.4614 71.0125 5.60623 71.0025 5.74233 70.9585L16.9679 67.4243C19.0328 70.984 21.7022 74.1567 24.8563 76.8001L19.4088 87.2215C19.3434 87.3473 19.3097 87.4871 19.3104 87.6289C19.3111 87.7706 19.3463 87.91 19.4129 88.0352C19.4796 88.1603 19.5756 88.2673 19.6928 88.3471C19.81 88.4268 19.9449 88.4768 20.0857 88.4928C21.357 88.6072 23.4642 89.0744 26.4422 90.6159C29.4202 92.1573 31.0284 93.6256 31.8452 94.5823C31.9398 94.689 32.0591 94.771 32.1925 94.8213C32.326 94.8715 32.4698 94.8884 32.6113 94.8706C32.7528 94.8528 32.8878 94.8007 33.0046 94.7189C33.1215 94.6371 33.2166 94.528 33.2818 94.4012L38.7293 83.9797C42.7192 85.032 46.861 85.3868 50.9719 85.0285L54.4838 96.2064C54.5266 96.3429 54.6021 96.4669 54.7038 96.5675C54.8055 96.6682 54.9302 96.7424 55.0672 96.7838C55.2042 96.8252 55.3492 96.8324 55.4896 96.8049C55.6299 96.7774 55.7615 96.7159 55.8727 96.6259C56.8452 95.8218 58.6759 94.6522 61.8859 93.6352C65.0959 92.6182 67.273 92.5196 68.5284 92.615C68.6708 92.6246 68.8134 92.5994 68.9438 92.5415C69.0742 92.4835 69.1885 92.3947 69.2768 92.2826C69.3651 92.1705 69.4248 92.0386 69.4505 91.8982C69.4763 91.7579 69.4674 91.6133 69.4247 91.4772L65.9286 80.3215C69.5235 78.2554 72.7324 75.5809 75.4125 72.4173L85.7672 77.779C85.8935 77.8444 86.0338 77.8781 86.176 77.877C86.3182 77.8759 86.458 77.8402 86.5832 77.7729C86.7085 77.7055 86.8154 77.6087 86.8947 77.4907C86.9741 77.3726 87.0234 77.2371 87.0385 77.0957C87.1656 75.8434 87.636 73.7235 89.1934 70.7392C90.7507 67.7548 92.2286 66.153 93.1852 65.3362C93.2932 65.2432 93.3766 65.1251 93.4283 64.9924C93.48 64.8596 93.4984 64.7162 93.4818 64.5747C93.4651 64.4332 93.414 64.298 93.333 64.1808C93.2519 64.0637 93.1433 63.9682 93.0168 63.9028L82.7002 58.5601C83.7924 54.5512 84.1743 50.382 83.8285 46.2413L94.9078 42.7452C95.044 42.7031 95.1678 42.6282 95.2684 42.5272C95.3691 42.4263 95.4435 42.3022 95.4852 42.1659C95.5268 42.0295 95.5345 41.8851 95.5076 41.7451C95.4806 41.6051 95.4199 41.4738 95.3305 41.3627C94.5328 40.4092 93.3664 38.5659 92.3621 35.3654C91.3577 32.1649 91.2656 29.991 91.3673 28.7387C91.3764 28.5962 91.3505 28.4536 91.2918 28.3233C91.2331 28.1931 91.1434 28.0793 91.0305 27.9918C90.9175 27.9043 90.7849 27.8458 90.6442 27.8214C90.5034 27.7971 90.3588 27.8076 90.2231 27.852L79.1787 31.3481C77.102 27.7385 74.406 24.5228 71.2141 21.8483L76.5694 11.6017C76.6355 11.476 76.6699 11.336 76.6696 11.194C76.6692 11.052 76.6341 10.9122 76.5674 10.7869C76.5006 10.6615 76.4042 10.5544 76.2866 10.4748C76.1689 10.3952 76.0336 10.3456 75.8924 10.3304C74.6402 10.2128 72.514 9.74875 69.5359 8.20413C66.5579 6.6595 64.9529 5.19434 64.1329 4.24087C64.0384 4.13348 63.919 4.05085 63.7851 4.0002C63.6513 3.94954 63.5071 3.9324 63.3651 3.95026C63.2231 3.96813 63.0877 4.02045 62.9706 4.10268C62.8534 4.18491 62.7582 4.29456 62.6932 4.42203L57.3347 14.6369C53.2956 13.5678 49.0999 13.2181 44.9396 13.604L41.488 2.58818C41.4456 2.45172 41.3705 2.32771 41.2691 2.22702C41.1677 2.12634 41.0432 2.05204 40.9065 2.01063C40.7697 1.96923 40.6249 1.962 40.4847 1.98955C40.3445 2.0171 40.2132 2.07859 40.1023 2.16865C39.1297 2.96957 37.2959 4.14551 34.0859 5.16255C30.8758 6.17959 28.6829 6.27812 27.4433 6.18277C27.3012 6.17389 27.159 6.19963 27.029 6.25778C26.899 6.31594 26.785 6.40477 26.6969 6.51666C26.6087 6.62855 26.5491 6.76016 26.523 6.90018C26.4969 7.04021 26.5052 7.18446 26.5471 7.32059L30.0209 18.3681C26.4185 20.4603 23.2081 23.1641 20.5339 26.3582L10.2173 21.022C10.091 20.9565 9.95073 20.9229 9.80853 20.924C9.66633 20.925 9.52654 20.9608 9.40129 21.0281C9.27603 21.0954 9.1691 21.1923 9.08976 21.3103C9.01042 21.4283 8.96107 21.5639 8.94599 21.7053C8.81886 22.9543 8.34849 25.0774 6.79115 28.0618C5.23381 31.0461 3.75275 32.6353 2.7961 33.4552ZM27.4847 38.658C29.6003 34.5983 32.8725 31.2573 36.8873 29.0577C40.9021 26.8581 45.4791 25.8987 50.0393 26.3009C54.5995 26.7032 58.9379 28.4489 62.5057 31.3174C66.0735 34.1858 68.7103 38.048 70.0826 42.4153C71.455 46.7827 71.5011 51.459 70.2151 55.8525C68.9292 60.2461 66.369 64.1595 62.8584 67.0977C59.3479 70.0359 55.0447 71.8669 50.4933 72.3589C45.942 72.851 41.3469 71.982 37.2895 69.862C31.879 66.9964 27.8158 62.114 25.9804 56.2731C24.1451 50.4321 24.6856 44.1032 27.4847 38.658Z" fill="url(#paint0_linear_147_312)"/>
<path d="M2.33814 31.4878C2.23032 31.581 2.14703 31.6993 2.09557 31.8322C2.04412 31.9651 2.02607 32.1086 2.04301 32.2501C2.05996 32.3916 2.11138 32.5268 2.19275 32.6438C2.27413 32.7608 2.38299 32.8561 2.50976 32.9212L12.8645 38.2829C11.7993 42.2804 11.4401 46.4331 11.8029 50.5541L0.615531 54.0978C0.479345 54.14 0.355539 54.2148 0.254909 54.3158C0.154278 54.4168 0.0798779 54.5409 0.0381942 54.6772C-0.00348938 54.8135 -0.0111907 54.958 0.0157616 55.098C0.0427139 55.238 0.103502 55.3692 0.192825 55.4803C0.993741 56.4497 2.16016 58.274 3.16448 61.4745C4.1688 64.675 4.26097 66.8489 4.15927 68.1011C4.14896 68.2438 4.17394 68.3868 4.23202 68.5175C4.2901 68.6482 4.37948 68.7626 4.49227 68.8506C4.60506 68.9385 4.73777 68.9974 4.87869 69.0219C5.01961 69.0464 5.1644 69.0358 5.30026 68.9911L16.5258 65.441C18.5929 69.0001 21.2632 72.1726 24.4174 74.8168L18.9699 85.2414C18.9037 85.3671 18.8693 85.507 18.8697 85.649C18.87 85.7911 18.9051 85.9309 18.9719 86.0562C19.0386 86.1816 19.135 86.2887 19.2527 86.3683C19.3703 86.4478 19.5056 86.4974 19.6468 86.5127C20.9022 86.6271 23.0253 87.0943 26.0033 88.6389C28.9813 90.1835 30.5895 91.6455 31.4063 92.6022C31.501 92.709 31.6203 92.7912 31.7539 92.8416C31.8875 92.8921 32.0313 92.9093 32.173 92.8918C32.3147 92.8742 32.45 92.8225 32.5672 92.7411C32.6845 92.6596 32.7802 92.5509 32.8461 92.4242L38.2936 81.9996C42.2823 83.0528 46.423 83.4087 50.533 83.0516L54.029 94.2326C54.0722 94.3689 54.148 94.4925 54.2498 94.5928C54.3517 94.6931 54.4765 94.767 54.6134 94.808C54.7503 94.8491 54.8952 94.856 55.0354 94.8283C55.1756 94.8006 55.3069 94.739 55.4179 94.649C56.3714 93.8481 58.2211 92.6753 61.4311 91.6582C64.6412 90.6412 66.8341 90.5427 68.0737 90.638C68.2157 90.6475 68.3578 90.6222 68.4879 90.5645C68.618 90.5067 68.7321 90.4182 68.8203 90.3065C68.9085 90.1948 68.9682 90.0634 68.9943 89.9234C69.0204 89.7835 69.012 89.6394 68.9699 89.5034L65.4739 78.3478C69.0688 76.2805 72.2778 73.605 74.9577 70.4403L85.3092 75.802C85.4356 75.8667 85.5758 75.8997 85.7177 75.8983C85.8596 75.8968 85.9991 75.8609 86.1241 75.7937C86.2491 75.7265 86.356 75.63 86.4355 75.5124C86.515 75.3948 86.5648 75.2597 86.5806 75.1187C86.7045 73.8696 87.1749 71.7497 88.7354 68.7622C90.2959 65.7747 91.7706 64.1728 92.7273 63.3592C92.8352 63.2665 92.9188 63.1488 92.9705 63.0163C93.0222 62.8837 93.0406 62.7405 93.0239 62.5992C93.0073 62.4579 92.9562 62.3229 92.8751 62.206C92.794 62.0892 92.6854 61.994 92.5588 61.929L82.2422 56.5864C83.3341 52.5763 83.7159 48.4061 83.3705 44.2643L94.4499 40.7683C94.5861 40.7257 94.7099 40.6504 94.8105 40.5492C94.911 40.4479 94.9854 40.3236 95.027 40.187C95.0687 40.0505 95.0764 39.9058 95.0495 39.7657C95.0226 39.6255 94.9618 39.494 94.8726 39.3826C94.0717 38.4291 92.9084 36.5857 91.9041 33.3852C90.8998 30.1847 90.8044 28.014 90.8966 26.7427C90.9063 26.5999 90.8808 26.4569 90.8223 26.3263C90.7638 26.1956 90.6742 26.0813 90.5612 25.9935C90.4482 25.9056 90.3154 25.8468 90.1743 25.8223C90.0333 25.7977 89.8884 25.8082 89.7524 25.8528L78.708 29.3489C76.6292 25.7408 73.9335 22.5255 70.7434 19.8491L76.0987 9.60246C76.1657 9.4769 76.2007 9.33679 76.2007 9.1945C76.2008 9.0522 76.1658 8.91207 76.0989 8.78647C76.032 8.66087 75.9353 8.55365 75.8172 8.47425C75.6991 8.39485 75.5633 8.34571 75.4217 8.33117C74.1695 8.2104 72.0433 7.74637 69.0653 6.20493C66.0873 4.66348 64.4822 3.19194 63.6623 2.24165C63.5679 2.13413 63.4487 2.05133 63.315 2.00043C63.1814 1.94953 63.0373 1.9321 62.8953 1.94965C62.7533 1.9672 62.6178 2.01919 62.5006 2.10111C62.3833 2.18303 62.2878 2.29238 62.2225 2.41963L56.8894 12.6695C52.8501 11.6021 48.6546 11.2525 44.4943 11.6365L41.03 0.617576C40.9881 0.480848 40.9132 0.356511 40.812 0.255465C40.7107 0.154419 40.5863 0.0797579 40.4495 0.038028C40.3127 -0.00370197 40.1677 -0.0112196 40.0274 0.0161271C39.887 0.0434739 39.7554 0.104837 39.6443 0.194864C38.6718 0.998959 36.8379 2.17174 33.6279 3.18878C30.4179 4.20582 28.2408 4.30433 26.9854 4.20898C26.843 4.19933 26.7004 4.22458 26.57 4.2825C26.4396 4.34042 26.3253 4.42928 26.237 4.54137C26.1487 4.65347 26.0891 4.78542 26.0633 4.92577C26.0375 5.06613 26.0464 5.21064 26.0891 5.3468L29.5566 16.3944C25.9536 18.4871 22.7423 21.1908 20.0664 24.3845L9.7625 19.0418C9.63604 18.978 9.49604 18.9455 9.35437 18.9473C9.21271 18.9492 9.07358 18.9851 8.94879 19.0522C8.824 19.1193 8.71724 19.2155 8.63757 19.3326C8.55791 19.4498 8.5077 19.5844 8.49121 19.7251C8.36726 20.9774 7.89688 23.1004 6.33954 26.0816C4.7822 29.0628 3.29796 30.6678 2.33814 31.4878ZM27.0299 36.6906C29.1455 32.6309 32.4177 29.2899 36.4325 27.0903C40.4473 24.8907 45.0243 23.9313 49.5845 24.3335C54.1447 24.7357 58.4831 26.4815 62.0509 29.3499C65.6187 32.2184 68.2556 36.0806 69.6279 40.4479C71.0002 44.8153 71.0463 49.4916 69.7603 53.8851C68.4744 58.2787 65.9142 62.1921 62.4036 65.1303C58.8931 68.0685 54.5899 69.8995 50.0386 70.3915C45.4872 70.8836 40.8921 70.0146 36.8347 67.8945C31.4242 65.029 27.361 60.1466 25.5257 54.3057C23.6903 48.4647 24.2308 42.1358 27.0299 36.6906Z" fill="url(#paint1_linear_147_312)"/>
<g opacity="0.29">
<path d="M23.3691 34.9106C20.9092 39.6896 19.9197 45.09 20.5254 50.4307C21.131 55.7714 23.3047 60.8131 26.7723 64.9199C30.2398 69.0267 34.8459 72.0146 40.0095 73.5068C45.1731 74.999 50.663 74.9286 55.7867 73.3045C60.9103 71.6804 65.4383 68.5753 68.7994 64.381C72.1605 60.1866 74.2042 55.0908 74.6727 49.7364C75.1412 44.3819 74.0135 39.0087 71.4319 34.2943C68.8504 29.58 64.9305 25.7358 60.1667 23.2465C56.9897 21.5725 53.5117 20.5461 49.9348 20.2269C46.3579 19.9078 42.7532 20.3022 39.3299 21.3873C35.9067 22.4724 32.733 24.2266 29.9931 26.5481C27.2532 28.8695 25.0016 31.7121 23.3691 34.9106ZM27.0304 36.6936C29.1457 32.6338 32.4177 29.2927 36.4323 27.0928C40.4469 24.8929 45.0238 23.9332 49.5839 24.3351C54.1441 24.737 58.4826 26.4824 62.0506 29.3504C65.6186 32.2185 68.2557 36.0804 69.6284 40.4476C71.0011 44.8148 71.0477 49.491 69.7622 53.8846C68.4767 58.2783 65.917 62.1919 62.4068 65.1304C58.8966 68.069 54.5937 69.9004 50.0424 70.393C45.4912 70.8855 40.8961 70.0171 36.8385 67.8976C31.4274 65.0326 27.3635 60.1504 25.5275 54.3094C23.6916 48.4684 24.2315 42.1392 27.0304 36.6936Z" fill="#823459"/>
</g>
<path d="M27.0302 36.6938C24.9369 40.7572 24.0939 45.3495 24.6075 49.8914C25.1211 54.4333 26.9683 58.7214 29.916 62.2148C32.8638 65.7081 36.78 68.2503 41.1709 69.5205C45.5617 70.7908 50.2303 70.7322 54.5879 69.3523C58.9455 67.9723 62.7968 65.3328 65.6561 61.7666C68.5153 58.2004 70.2544 53.8674 70.6539 49.314C71.0534 44.7606 70.0956 40.1909 67.9011 36.1813C65.7066 32.1717 62.3738 28.9018 58.3231 26.784C55.6216 25.3612 52.6646 24.4887 49.6234 24.2171C46.5823 23.9456 43.5174 24.2804 40.6066 25.2022C37.6958 26.124 34.9969 27.6144 32.6664 29.587C30.3359 31.5597 28.4201 33.9753 27.0302 36.6938ZM32.805 39.7926C34.3219 36.8818 36.6681 34.4864 39.5468 32.9095C42.4255 31.3325 45.7072 30.6449 48.9768 30.9336C52.2464 31.2224 55.3569 32.4744 57.9146 34.5314C60.4724 36.5884 62.3625 39.3579 63.3459 42.4895C64.3292 45.621 64.3616 48.9739 63.4388 52.1238C62.5161 55.2737 60.6797 58.0791 58.1621 60.1851C55.6444 62.2911 52.5587 63.6029 49.2953 63.9546C46.0319 64.3064 42.7375 63.6822 39.8289 62.161C35.9508 60.1065 33.0387 56.6063 31.7239 52.4191C30.409 48.2319 30.7975 43.6953 32.805 39.7926Z" fill="#FF8CC3"/>
<defs>
<linearGradient id="paint0_linear_147_312" x1="26.2804" y1="7.5895" x2="78.6025" y2="86.5483" gradientUnits="userSpaceOnUse">
<stop stop-color="#EF2385"/>
<stop offset="0.98" stop-color="#8C3861"/>
</linearGradient>
<linearGradient id="paint1_linear_147_312" x1="47.5326" y1="0" x2="47.5326" y2="94.845" gradientUnits="userSpaceOnUse">
<stop stop-color="#EF2385"/>
<stop offset="1" stop-color="#FF79B9"/>
</linearGradient>
</defs>
</svg>
